HIERARCHY
ROOT joint_Root
{
	OFFSET 0.0 0.0 0.0
	CHANNELS 6 Xposition Yposition Zposition Zrotation Xrotation Yrotation 
	JOINT Hips
	{
		OFFSET -17.1583 93.1646 452.98
		CHANNELS 6 Xposition Yposition Zposition Zrotation Xrotation Yrotation 
		JOINT Spine
		{
			OFFSET 15.7357 0.0 0.0
			CHANNELS 6 Xposition Yposition Zposition Zrotation Xrotation Yrotation 
			JOINT Chest
			{
				OFFSET 8.98455 -0.406207 0.0
				CHANNELS 6 Xposition Yposition Zposition Zrotation Xrotation Yrotation 
				JOINT Neck
				{
					OFFSET 16.3773 0.0 0.0
					CHANNELS 6 Xposition Yposition Zposition Zrotation Xrotation Yrotation 
					JOINT Head
					{
						OFFSET 6.45672 0.0 0.0
						CHANNELS 6 Xposition Yposition Zposition Zrotation Xrotation Yrotation 
						End Site
						{
							OFFSET 0.0 0.0 0.0
						}
					}
				}
				JOINT Shoulder_L
				{
					OFFSET 12.9942 -0.242716 4.98039
					CHANNELS 6 Xposition Yposition Zposition Zrotation Xrotation Yrotation 
					JOINT UpperArm_L
					{
						OFFSET 5.34809 0.0 0.0
						CHANNELS 6 Xposition Yposition Zposition Zrotation Xrotation Yrotation 
						JOINT LowerArm_L
						{
							OFFSET 24.3286 1.87007e-05 0.0
							CHANNELS 6 Xposition Yposition Zposition Zrotation Xrotation Yrotation 
							JOINT Hand_L
							{
								OFFSET 22.2916 0.0 0.0
								CHANNELS 6 Xposition Yposition Zposition Zrotation Xrotation Yrotation 
								End Site
								{
									OFFSET 0.0 0.0 0.0
								}
							}
						}
					}
				}
				JOINT Shoulder_R
				{
					OFFSET 12.9945 -0.242716 -4.98039
					CHANNELS 6 Xposition Yposition Zposition Zrotation Xrotation Yrotation 
					JOINT UpperArm_R
					{
						OFFSET -5.34813 0.0 0.0
						CHANNELS 6 Xposition Yposition Zposition Zrotation Xrotation Yrotation 
						JOINT LowerArm_R
						{
							OFFSET -24.3289 0.000322201 0.0
							CHANNELS 6 Xposition Yposition Zposition Zrotation Xrotation Yrotation 
							JOINT Hand_R
							{
								OFFSET -22.2915 -0.000108084 0.0
								CHANNELS 6 Xposition Yposition Zposition Zrotation Xrotation Yrotation 
								End Site
								{
									OFFSET 0.0 0.0 0.0
								}
							}
						}
					}
				}
			}
		}
		JOINT UpperLeg_L
		{
			OFFSET -2.19248 -6.46944 0.0
			CHANNELS 6 Xposition Yposition Zposition Zrotation Xrotation Yrotation 
			JOINT LowerLeg_L
			{
				OFFSET 39.0811 0.0 -1.23785e-05
				CHANNELS 6 Xposition Yposition Zposition Zrotation Xrotation Yrotation 
				JOINT Foot_L
				{
					OFFSET 40.9854 0.0 -1.26872e-05
					CHANNELS 6 Xposition Yposition Zposition Zrotation Xrotation Yrotation 
					JOINT Toes_L
					{
						OFFSET 11.7543 0.0 0.0
						CHANNELS 6 Xposition Yposition Zposition Zrotation Xrotation Yrotation 
						End Site
						{
							OFFSET 0.0 0.0 0.0
						}
					}
				}
			}
		}
		JOINT UpperLeg_R
		{
			OFFSET -2.19251 6.46944 0.0
			CHANNELS 6 Xposition Yposition Zposition Zrotation Xrotation Yrotation 
			JOINT LowerLeg_R
			{
				OFFSET -39.0811 -0.00228153 -0.0401928
				CHANNELS 6 Xposition Yposition Zposition Zrotation Xrotation Yrotation 
				JOINT Foot_R
				{
					OFFSET -40.9854 0.0 0.0
					CHANNELS 6 Xposition Yposition Zposition Zrotation Xrotation Yrotation 
					JOINT Toes_R
					{
						OFFSET -11.7543 0.0 0.0
						CHANNELS 6 Xposition Yposition Zposition Zrotation Xrotation Yrotation 
						End Site
						{
							OFFSET 0.0 0.0 0.0
						}
					}
				}
			}
		}
	}
}
MOTION
Frames:	5
Frame Time:	0.0333333
0.000000 0.000000 0.000000 0.000000 0.000000 -0.000000 1.110590 92.973500 0.805310 88.629700 -0.374242 2.012410 15.735700 0.000005 -0.000001 87.598500 87.424500 -83.083300 8.984550 -0.406207 -0.000000 -2.579110 -0.622826 9.016360 16.377300 -0.000001 -0.000001 -1.244320 5.167740 -0.931963 6.456720 -0.000001 -0.000000 4.476470 4.789120 15.773200 12.994200 -0.242716 4.980390 -88.746800 -2.410930 -62.523200 5.348090 -0.000007 -0.000001 -39.965600 -56.628000 -102.771000 24.328600 0.000019 0.000005 30.676200 38.723300 -43.480900 22.291600 -0.000001 0.000005 59.692600 4.815640 10.996900 12.994500 -0.242716 -4.980390 89.407700 1.953240 -73.126600 -5.348130 -0.000001 -0.000004 -68.436000 6.408500 -3.791090 -24.328900 0.000322 -0.000009 0.624885 2.246600 -15.573900 -22.291500 -0.000108 -0.000004 7.728390 5.217580 2.274520 -2.192480 -6.469440 -0.000000 -174.807000 -4.705920 0.412476 39.081100 -0.000007 -0.000012 0.022455 -0.077842 16.091600 40.985400 -0.000006 -0.000013 0.252141 12.862000 -69.739000 11.754300 -0.000000 0.000003 -0.001023 0.183355 -9.139000 -2.192510 6.469440 -0.000001 174.823000 4.653940 -176.806000 -39.081100 -0.002282 -0.040193 -0.000078 0.018120 10.674800 -40.985400 0.000008 0.000006 -7.819400 8.288960 -66.715900 -11.754300 -0.000006 -0.000006 -0.010498 0.274993 -5.400120
0.000000 0.000000 0.000000 0.000000 0.000000 -0.000000 1.135910 92.970300 0.769507 88.621000 -0.579939 1.897420 15.735700 0.000005 -0.000001 87.982300 87.449500 -83.440000 8.984550 -0.406207 -0.000000 -2.628670 -0.591002 9.071300 16.377300 -0.000001 -0.000001 -1.373450 5.430590 -1.279910 6.456720 -0.000001 -0.000000 4.245780 4.810390 15.697700 12.994200 -0.242716 4.980390 -88.769500 -2.359830 -62.450600 5.348090 -0.000007 -0.000001 -36.953300 -56.854700 -102.149000 24.328600 0.000019 0.000005 35.142900 44.691100 -45.026700 22.291600 -0.000001 0.000005 65.588500 4.770980 11.860400 12.994500 -0.242716 -4.980390 89.418400 1.930380 -73.230800 -5.348130 -0.000001 -0.000004 -68.757000 7.186710 -4.411490 -24.328900 0.000322 -0.000009 0.535034 1.862140 -16.063600 -22.291500 -0.000108 -0.000004 7.565220 5.225420 2.073760 -2.192480 -6.469440 -0.000000 -174.846000 -4.775510 0.257469 39.081100 -0.000007 -0.000012 0.023948 -0.082614 16.165800 40.985400 -0.000006 -0.000013 0.259128 12.706500 -69.717900 11.754300 -0.000000 0.000003 -0.000848 0.180855 -9.240610 -2.192510 6.469440 -0.000001 174.820000 4.644100 -177.023000 -39.081100 -0.002282 -0.040193 0.000579 0.014509 10.763800 -40.985400 0.000008 0.000006 -7.692200 8.483860 -66.738400 -11.754300 -0.000006 -0.000006 -0.010229 0.273011 -5.481190
0.000000 0.000000 0.000000 0.000000 0.000000 -0.000000 1.149650 92.978100 0.748843 88.606400 -0.859550 1.900330 15.735700 0.000005 -0.000001 88.198600 87.433800 -83.596500 8.984550 -0.406207 -0.000000 -2.596290 -0.576850 9.191250 16.377300 -0.000001 -0.000001 -1.448710 5.610910 -1.481980 6.456720 -0.000001 -0.000000 4.188470 4.903510 15.497800 12.994200 -0.242716 4.980390 -88.744200 -2.402220 -62.389900 5.348090 -0.000007 -0.000001 -35.682500 -56.666500 -101.576000 24.328600 0.000019 0.000005 31.844800 44.856900 -41.365000 22.291600 -0.000001 0.000005 62.180600 4.819010 10.948500 12.994500 -0.242716 -4.980390 89.430500 1.893910 -73.260800 -5.348130 -0.000001 -0.000004 -69.055600 7.919500 -5.169470 -24.328900 0.000322 -0.000009 0.561729 1.934540 -16.223700 -22.291500 -0.000108 -0.000004 7.473510 5.225420 2.073760 -2.192480 -6.469440 -0.000000 -174.857000 -4.812440 0.332881 39.081100 -0.000007 -0.000012 0.024860 -0.086207 16.086400 40.985400 -0.000006 -0.000013 0.223310 12.481400 -69.685600 11.754300 -0.000000 0.000003 -0.000861 0.181040 -9.233070 -2.192510 6.469440 -0.000001 174.826000 4.513970 -177.048000 -39.081100 -0.002282 -0.040193 0.000516 0.014934 10.699600 -40.985400 0.000008 0.000006 -7.689110 8.579990 -66.646400 -11.754300 -0.000006 -0.000006 -0.010150 0.272418 -5.505450
0.000000 0.000000 0.000000 0.000000 0.000000 -0.000000 1.145290 92.984800 0.714611 88.618700 -1.061590 1.863060 15.735700 0.000005 -0.000001 87.372400 87.415800 -82.693000 8.984550 -0.406207 -0.000000 -2.558980 -0.657883 9.344140 16.377300 -0.000001 -0.000001 -1.430180 5.657770 -1.469490 6.456720 -0.000001 -0.000000 4.101920 4.986880 15.265900 12.994200 -0.242716 4.980390 -88.735900 -2.415670 -62.366600 5.348090 -0.000007 -0.000001 -35.717600 -56.083100 -101.054000 24.328600 0.000019 0.000005 24.095500 41.730100 -33.894100 22.291600 -0.000001 0.000005 58.001100 4.855770 10.251000 12.994500 -0.242716 -4.980390 89.415500 1.940650 -73.234000 -5.348130 -0.000001 -0.000004 -69.199000 8.595230 -5.931890 -24.328900 0.000322 -0.000009 0.571603 1.959480 -16.294300 -22.291500 -0.000108 -0.000004 7.576530 5.227020 2.032440 -2.192480 -6.469440 -0.000000 -174.851000 -5.069700 0.344138 39.081100 -0.000007 -0.000012 0.025356 -0.088291 16.023500 40.985400 -0.000006 -0.000013 0.223351 12.560700 -69.695700 11.754300 -0.000000 0.000003 -0.000985 0.182820 -9.160740 -2.192510 6.469440 -0.000001 174.830000 4.320380 -177.144000 -39.081100 -0.002282 -0.040193 0.001033 0.012182 10.713400 -40.985400 0.000008 0.000006 -7.649620 8.599710 -66.665400 -11.754300 -0.000006 -0.000006 -0.010352 0.273920 -5.444020
0.000000 0.000000 0.000000 0.000000 0.000000 -0.000000 1.123450 92.984200 0.728867 88.591400 -1.288220 1.959210 15.735700 0.000005 -0.000001 86.708600 87.337100 -81.939000 8.984550 -0.406207 -0.000000 -2.400920 -0.728218 9.523600 16.377300 -0.000001 -0.000001 -1.422130 5.596640 -1.255810 6.456720 -0.000001 -0.000000 3.947270 5.057310 15.241900 12.994200 -0.242716 4.980390 -88.727900 -2.425930 -62.316700 5.348090 -0.000007 -0.000001 -36.187200 -55.314800 -99.973500 24.328600 0.000019 0.000005 16.697200 37.500400 -26.227700 22.291600 -0.000001 0.000005 55.427900 4.805870 11.211400 12.994500 -0.242716 -4.980390 89.392600 2.006260 -73.152800 -5.348130 -0.000001 -0.000004 -69.290400 9.054710 -6.476090 -24.328900 0.000322 -0.000009 0.499733 1.689480 -16.513200 -22.291500 -0.000108 -0.000004 7.608780 5.228920 1.983350 -2.192480 -6.469440 -0.000000 -174.790000 -5.253790 0.500330 39.081100 -0.000007 -0.000012 0.024714 -0.086213 15.995800 40.985400 -0.000006 -0.000013 0.204600 12.540100 -69.688500 11.754300 -0.000000 0.000003 -0.000934 0.182086 -9.190560 -2.192510 6.469440 -0.000001 174.870000 4.139850 -177.098000 -39.081100 -0.002282 -0.040193 0.000619 0.014326 10.745500 -40.985400 0.000008 0.000006 -7.672380 8.620320 -66.624000 -11.754300 -0.000006 -0.000006 -0.010227 0.272994 -5.481920
